<?xml version="1.0" standalone="no"?>
<!DOCTYPE svg PUBLIC "-//W3C//DTD SVG 20010904//EN"
 "http://www.w3.org/TR/2001/REC-SVG-20010904/DTD/svg10.dtd">
<svg version="1.0" xmlns="http://www.w3.org/2000/svg"
 width="128.000000pt" height="128.000000pt" viewBox="0 0 128.000000 128.000000"
 preserveAspectRatio="xMidYMid meet">

<g transform="translate(0.000000,128.000000) scale(0.100000,-0.100000)"
fill="#000000" stroke="none">
<path d="M486 1205 c-194 -54 -359 -220 -411 -415 -19 -71 -19 -229 0 -300 36
-134 131 -265 249 -342 183 -118 449 -118 632 0 118 77 213 208 249 342 19 71
19 229 0 300 -52 197 -218 363 -415 415 -68 18 -237 18 -304 0z m319 -67 c329
-108 464 -501 270 -792 -73 -110 -196 -192 -332 -221 -85 -18 -121 -18 -206 0
-187 39 -331 167 -395 349 -47 135 -30 306 44 432 124 212 384 309 619 232z"/>
<path d="M585 1016 c-17 -7 -45 -28 -63 -46 -117 -117 -116 -334 2 -437 124
-110 309 14 324 218 14 191 -121 327 -263 265z"/>
<path d="M470 388 c0 -24 65 -76 104 -83 46 -9 85 1 121 30 33 27 16 34 -25
10 -30 -17 -93 -19 -123 -4 -12 6 -34 23 -49 37 -21 20 -28 22 -28 10z"/>
</g>
</svg>
